# Blender v3.2.0 OBJ File: ''
# www.blender.org
o Torus.005
v -1.650000 0.000000 0.000000
v -0.675000 0.562917 0.000000
v -0.675000 -0.562917 0.000000
v 0.825000 0.000000 1.428942
v 0.337500 0.562917 0.584567
v 0.337500 -0.562917 0.584567
v 0.825000 0.000000 -1.428942
v 0.337500 0.562917 -0.584567
v 0.337500 -0.562917 -0.584567
vn -0.3780 0.6547 0.6547
vn 0.5000 0.0000 -0.8660
vn -0.3780 -0.6547 0.6547
vn 0.7559 0.6547 0.0000
vn -1.0000 0.0000 0.0000
vn 0.7559 -0.6547 0.0000
vn -0.3780 0.6547 -0.6547
vn 0.5000 0.0000 0.8660
vn -0.3780 -0.6547 -0.6547
s off
f 4//1 2//1 1//1
f 5//2 3//2 2//2
f 6//3 1//3 3//3
f 7//4 5//4 4//4
f 8//5 6//5 5//5
f 9//6 4//6 6//6
f 1//7 8//7 7//7
f 2//8 9//8 8//8
f 3//9 7//9 9//9
f 4//1 5//1 2//1
f 5//2 6//2 3//2
f 6//3 4//3 1//3
f 7//4 8//4 5//4
f 8//5 9//5 6//5
f 9//6 7//6 4//6
f 1//7 2//7 8//7
f 2//8 3//8 9//8
f 3//9 1//9 7//9
